<?xml version="1.0" encoding="UTF-8"?>
<svg id="Layer_1" xmlns="http://www.w3.org/2000/svg" width="780" height="780" version="1.1" viewBox="0 0 780 780">
  <style>
    @media (prefers-color-scheme: dark) {
      .icon { fill: white; }
    }
    @media (prefers-color-scheme: light) {
      .icon { fill: black; }
    }
  </style>
  <path class="icon" d="M390,.003C174.61.003,0,174.612,0,390.003s174.61,390,390,390,390-174.61,390-390S605.39.003,390,.003ZM613.83,577.422c-2.43,3.02-6.1,7.48-11.62,12.74-2.78,2.6-6.02,5.41-9.81,8.22-3.8,2.8-8.14,5.61-12.96,8.44-4.84,2.8-10.2,5.54-16.06,8.19-5.86,2.64-12.22,5.1-19.05,7.41-6.84,2.33-14.15,4.31-21.88,6.17-3.87.85-7.85,1.76-11.92,2.49-4.08.82-8.25,1.43-12.53,2.1-15.71,2.25-32.73,3.48-50.75,3.48-.38.84-.79,1.68-1.19,2.53-4.09,8.62-8.26,17.39-12.06,26.05-.97,2.16-1.89,4.31-2.77,6.42-.42,1.03-.89,2.12-1.27,3.12l-.58,1.51-.29.75-.32.85c-1.56,4.28-3,8.56-4.18,12.73-1.17,4.17-2.09,8.27-2.61,12.15-.52,3.87-.66,7.5-.41,10.54.25,3.08.84,5.38,1.77,7.29.5.94,1.09,1.87,1.96,2.74.85.88,1.95,1.71,3.25,2.46.32.19.66.36,1.01.54l.13.06.06.04c-.03,0-.04,0-.08-.01l.38.13.74.24c.48.17.98.33,1.46.5l1.21.38c.77.28,1.67.49,2.52.73.85.21,1.7.41,2.55.59,3.38.66,6.71,1.03,9.93.96,6.47-.06,12.55-1.77,17.9-3.83,5.34-2.09,9.92-4.53,13.71-6.52,1.89-1.01,3.58-1.92,5.06-2.71,1.47-.77,2.8-1.34,3.91-1.78,2.22-.83,3.25-1.49,3.61-.94h.02c.37.55-.65,1.26-2.23,3.02-.8.85-1.8,1.88-3.07,2.99-1.28,1.1-2.75,2.33-4.44,3.72-3.34,2.76-7.46,6.1-12.68,9.62-2.62,1.75-5.55,3.5-8.86,5.1-3.3,1.6-7,3.03-11.05,4.06-4.05,1.06-8.43,1.62-12.96,1.75-1.13.02-2.27.02-3.42-.01-1.15-.05-2.26-.06-3.5-.18-.61-.06-1.22-.11-1.83-.16-.53-.06-1.05-.11-1.58-.16l-.78-.09-.39-.04c-.34-.08-.17-.03-.28-.05l-.12-.02-.25-.03c-.67-.08-1.34-.17-2.02-.3-2.74-.46-5.6-1.33-8.45-2.68-2.84-1.37-5.64-3.27-8.06-5.67-2.42-2.37-4.43-5.19-5.97-8.11-1.54-2.94-2.62-5.97-3.37-8.97-1.48-6-1.7-11.81-1.45-17.36.26-5.56,1.01-10.92,2.01-16.15.99-5.25,2.26-10.32,3.68-15.35l.25-.89.29-.99.61-1.96c.4-1.32.82-2.51,1.23-3.78.84-2.48,1.69-4.91,2.57-7.29,1.74-4.79,3.59-9.44,5.43-14.07.66-1.61,1.29-3.21,1.94-4.8-.62-.04-1.25-.09-1.87-.13-5.5-.51-10.87-1.04-16.28-1.86-5.43-.75-10.88-1.75-16.38-2.81-21.97-4.36-44.33-11.31-66.55-19.46-11.12-4.02-22.25-8.31-33.36-12.12-2.78-.92-5.56-1.84-8.33-2.65-1.39-.42-2.77-.81-4.15-1.19l-1.01-.27-1.13-.3-2.12-.55c-2.23-.55-4.48-1.08-6.76-1.58-4.65,5.82-9.58,11.44-14.89,16.73-5.47,5.34-11.27,10.44-17.86,14.74-6.55,4.31-13.85,7.96-22.13,9.71-2.06.46-4.15.72-6.36.88l-1.78.06c-.32.02-.58.02-.78.01l-.65-.01-.65-.02c-.16,0-.91-.03-.94-.04l-1.45-.09c-3.9-.3-7.86-.83-11.92-2.02-4.03-1.19-8.28-3.02-12.11-6.4-1.89-1.68-3.6-3.8-4.84-6.19-1.25-2.38-2-4.97-2.31-7.45-.32-2.5-.23-4.88.06-7.11.32-2.22.81-4.28,1.42-6.27l.52-1.56.26-.74.23-.6.54-1.36c.24-.54.48-1.1.75-1.64,1.07-2.15,2.42-4.11,3.91-5.83,3.01-3.45,6.49-5.99,9.99-7.97,3.5-1.99,7.06-3.48,10.59-4.7,7.07-2.42,14.07-3.83,20.99-4.89,13.84-1.98,27.37-2.44,40.68-2.09.24.01.47.01.71.02.98-1.71,1.94-3.44,2.88-5.19,1.67-3.09,3.3-6.23,4.87-9.42l1.18-2.39.29-.59.26-.55.59-1.25c.79-1.66,1.58-3.32,2.37-4.99,12.45-26.22,23.66-53.54,35.55-81.41,5.94-13.94,12.08-27.97,18.33-42.07,4.49-9.96,9.06-20,13.73-29.97-.84.68-1.69,1.34-2.53,2.01-10.38,8.2-20.78,16.24-31.49,23.71-10.72,7.45-21.72,14.37-33.19,20.26-5.75,2.91-11.61,5.56-17.57,7.86-2.97,1.17-5.99,2.22-9.01,3.19-1.5.51-3.04.92-4.55,1.39l-2.27.64-2.14.59c-3.07.81-6.04,1.55-9.03,2.19-2.98.67-5.97,1.23-8.95,1.75-5.97,1.01-11.92,1.77-17.84,2.19-11.84.89-23.54.55-34.8-1.09-11.26-1.63-22.09-4.53-32.13-8.78-10.01-4.3-19.26-9.91-26.97-17.15-3.85-3.62-7.31-7.65-10.09-12.17-2.78-4.49-4.88-9.51-5.78-14.86-.91-5.32-.47-10.97,1.42-15.94,1.82-5.01,4.97-9.17,8.44-12.44,3.5-3.27,7.35-5.73,11.22-7.66,3.87-1.95,7.79-3.36,11.63-4.52,7.7-2.24,15.14-3.33,22.17-3.94,7.03-.61,13.67-.67,19.88-.49s12.01.59,17.37,1.12c10.73,1.05,19.75,2.52,27.03,3.88,7.27,1.35,12.81,2.54,16.53,3.4,3.71.87,5.63,1.32,5.63,1.32l-.2.98s-1.94-.28-5.71-.81c-3.77-.5-9.36-1.26-16.67-2.01-3.65-.37-7.73-.73-12.23-1.04-4.49-.32-9.39-.6-14.69-.73-10.57-.25-22.78-.03-36.05,1.94-6.61,1.01-13.5,2.51-20.26,4.95-3.36,1.25-6.71,2.69-9.83,4.52-3.13,1.81-6.05,3.98-8.46,6.53-2.39,2.56-4.26,5.48-5.21,8.66-.99,3.17-1.07,6.59-.29,10.05.8,3.46,2.43,6.93,4.71,10.18,2.28,3.25,5.14,6.31,8.41,9.09,6.57,5.56,14.68,9.99,23.54,13.26,8.87,3.29,18.53,5.42,28.59,6.41,10.06.97,20.53.87,31.15-.36,5.31-.6,10.66-1.51,16.02-2.63,2.68-.59,5.37-1.21,8.05-1.92,2.69-.7,5.39-1.48,7.98-2.26l2.11-.66,1.06-.33c.24-.08.26-.08.43-.15l.49-.17c1.3-.47,2.62-.88,3.91-1.4,2.6-.98,5.19-2.02,7.77-3.18,5.15-2.28,10.26-4.89,15.32-7.77,10.13-5.74,20.06-12.55,29.91-20.01,9.86-7.45,19.67-15.53,29.6-23.96,4.98-4.24,9.99-8.51,15.05-12.81,2.54-2.16,5.09-4.33,7.65-6.5,2.56-2.18,4.95-4.3,7.44-6.47,4.47-3.97,8.91-8.06,13.3-12.25,6.72-13.95,13.47-27.96,20.22-41.99,6.83-14.1,13.75-28.2,20.68-42.31,6.98-14.1,13.89-28.25,21.09-42.28,14.35-28.08,30.01-55.52,45.91-82.88,7.87-13.91,16.37-27.51,25.8-40.51,4.75-6.5,9.68-12.88,15.35-19.05,2.88-3.09,5.84-6.12,9.73-9.09.98-.74,2.04-1.48,3.27-2.21,1.24-.72,2.6-1.46,4.51-2.08.95-.31,2.02-.59,3.38-.73,1.34-.13,2.96-.11,4.75.35,1.78.45,3.64,1.42,5.03,2.64,1.41,1.21,2.34,2.54,2.98,3.7.64,1.17,1.05,2.25,1.33,3.18.29.97.46,1.81.6,2.63.25,1.59.32,2.98.34,4.28.02,2.59-.2,4.87-.47,7.07-.58,4.38-1.44,8.41-2.38,12.38-1.91,7.9-4.24,15.43-6.69,22.88-2.46,7.42-5.07,14.73-7.75,21.97l-2.03,5.41-1.03,2.7-1.08,2.78-1.04,2.65-1.18,2.8c-.78,1.89-1.57,3.68-2.36,5.47-6.41,14.26-13.41,27.89-20.8,41.19-3.68,6.66-7.48,13.2-11.31,19.7-3.88,6.46-7.78,12.88-11.81,19.18-8.06,12.6-16.34,24.92-25.03,36.8-8.66,11.9-17.68,23.38-27.01,34.43-10.06,11.9-20.52,23.27-31.38,34-7.76,16.94-15.6,33.82-23.62,50.53-13.36,27.77-26.09,55.34-38.77,82.93-6.36,13.78-12.95,27.46-19.84,40.96-3.47,6.73-6.99,13.42-10.65,20.02-1.82,3.3-3.62,6.58-5.54,9.87-1.88,3.27-3.76,6.58-5.65,9.71l-2.83,4.74-1.47,2.46-1.49,2.42c-1.11,1.81-2.23,3.61-3.37,5.39,1.58.21,3.15.42,4.69.68,3.27.5,6.46,1.1,9.62,1.7,6.3,1.24,12.4,2.59,18.35,4.03,5.96,1.41,11.76,2.91,17.46,4.37,22.76,5.88,43.88,11.48,64.05,15.6,2.51.55,5.01,1.02,7.5,1.52,1.24.23,2.48.46,3.72.69,1.23.24,2.46.47,3.69.69,1.22.22,2.44.44,3.66.65,1.22.21,2.44.41,3.65.61,2.44.45,4.71.77,7.06,1.16,1.26.18,2.51.37,3.76.55l1.87.28c.29.04.13.03.32.05l.45.06.91.11c1.68.2,3.35.4,5.02.61.39-.83.77-1.66,1.15-2.49,1.93-4.21,3.91-8.3,5.81-12.32,1.95-3.99,3.86-7.9,5.72-11.7,1.9-3.78,3.75-7.46,5.54-11.01,1.83-3.54,3.59-6.95,5.29-10.23,6.86-13.06,12.74-23.86,16.88-31.37,1.03-1.88,1.95-3.55,2.75-5.01.21-.36.37-.73.62-1.02.25-.31.58-.56.93-.78.75-.42,1.67-.68,2.7-.79,1.04-.12,2.12-.16,3.25-.1.52.01,1.16.09,1.68.12.55.06.96.07,1.51.16.5.07.95.13,1.33.19.39.05.81.15,1.09.2.61.11.92.17.92.17l2.48,1.16s.24.2.72.59c.22.19.56.45.85.71.29.26.62.56,1,.9.42.36.69.67,1.09,1.05.36.38.84.82,1.16,1.22.76.85,1.4,1.73,1.94,2.65.55.93.91,1.82,1.04,2.68.05.41.07.84-.02,1.22-.08.4-.27.76-.43,1.15-.64,1.54-1.39,3.32-2.22,5.31-3.32,7.95-8.15,19.22-14.04,32.68-1.49,3.35-3.04,6.85-4.64,10.47-1.62,3.6-3.3,7.33-5.02,11.17-1.75,3.81-3.54,7.74-5.38,11.74-.71,1.53-1.43,3.08-2.15,4.64,12.06.89,23.55,1.35,34.42,1.32,7.97-.08,15.61-.36,22.88-.97,7.24-.67,14.15-1.49,20.62-2.69,6.46-1.2,12.55-2.54,18.16-4.21,5.6-1.66,10.79-3.46,15.53-5.39,9.45-3.92,17.14-8.13,23.5-11.56,6.33-3.51,11.29-6.34,14.75-8.13,1.75-.89,3.07-1.57,3.98-1.97.84-.39,1.32-.59,1.37-.62l.62.78s-1.21,1.66-3.6,4.69ZM642.01,442.182c-.28.59-.71,1.45-1.28,2.56-1.16,2.23-2.88,5.47-5.41,9.44-2.49,4-5.84,8.69-10.2,13.79-2.23,2.5-4.66,5.15-7.41,7.75-2.77,2.6-5.79,5.25-9.12,7.8-3.3,2.59-6.92,5.05-10.78,7.44-3.84,2.42-7.96,4.65-12.29,6.74-8.64,4.21-18.15,7.71-28.14,10.47-2.5.66-4.99,1.34-7.65,1.93l-1.98.44-1.92.42c-1.21.25-2.43.5-3.65.75l-.92.18-.23.05-.11.02-.31.05-.56.08-2.23.34c-.74.1-1.5.23-2.24.32l-2.22.22-2.22.22c-.74.06-1.47.08-2.2.12-1.47.06-2.95.15-4.4.14-11.68.18-22.83-1.37-33.57-3.54-10.7-2.23-20.98-5.16-30.81-8.31-9.85-3.13-19.26-6.54-28.28-9.56-9-3.08-17.61-5.82-25.63-7.78-1.97-.47-4.03-.94-5.76-1.27-.44-.09-.89-.18-1.34-.27-.52-.08-1.05-.16-1.56-.24-.53-.08-1.05-.16-1.58-.24l-.39-.06c.06,0,.14,0,.02-.01l-.18-.03-.7-.1c-3.74-.52-7.29-.83-10.53-.88-1.62,0-3.17,0-4.61.13-1.43.13-2.77.32-3.99.58-2.42.56-4.32,1.32-5.85,2.52-1.55,1.17-2.8,2.88-3.71,4.88-.93,1.99-1.51,4.19-1.94,6.26-.82,4.17-1.07,7.81-1.32,10.25-.11,1.24-.2,2.19-.26,2.83-.07.65-.11.98-.11.98l-.98.17s-.6-1.2-1.61-3.51c-.97-2.32-2.41-5.72-3.46-10.58-.51-2.43-.89-5.26-.7-8.6.12-1.67.37-3.46.91-5.34.54-1.87,1.38-3.82,2.54-5.71,2.33-3.79,6.04-7.03,10.12-9.21,2.03-1.11,4.16-2.01,6.32-2.73,2.17-.73,4.36-1.32,6.59-1.74,2.23-.44,4.48-.78,6.74-1.01,2.26-.22,4.54-.35,6.84-.42l.87-.03h.21c-.15-.02.32.01.31.01h.5c.53,0,1.06.01,1.59.01s1.07.01,1.61.01c.62.03,1.24.06,1.86.09,2.56.11,4.83.3,7.23.51,9.49.91,19.09,2.53,28.8,4.35,9.7,1.87,19.53,3.9,29.32,5.98,9.8,2.06,19.57,4.11,29.12,5.82,9.53,1.63,18.9,3.02,27.56,3.27,1.1.07,2.14.04,3.21.04l1.58.01,1.55-.05,1.54-.05c.51-.02,1-.08,1.5-.12l1.48-.11.38-.03c.03-.01.05-.01.05-.01q0,.01-.01.01l.23-.03.93-.11c1.23-.15,2.47-.29,3.7-.43.64-.07,1.17-.15,1.72-.23l1.65-.22c2.19-.25,4.46-.62,6.69-.95,8.91-1.39,17.41-3.11,25.33-5.26,3.95-1.07,7.78-2.2,11.44-3.44.93-.29,1.82-.62,2.72-.95.89-.32,1.79-.63,2.65-.98.88-.33,1.74-.66,2.6-.98.86-.35,1.7-.69,2.54-1.03,3.31-1.42,6.51-2.83,9.5-4.31,2.97-1.5,5.82-2.97,8.44-4.49,5.28-2.97,9.81-5.93,13.57-8.44,3.78-2.58,6.75-4.61,8.78-5.99,2.05-1.41,3.18-2.14,3.18-2.14l.75.66s-.14.3-.42.88ZM234.23,588.763c-2.04,2.73-4.16,5.37-6.37,7.89-2.18,2.54-4.49,4.92-6.86,7.18-2.36,2.25-4.82,4.35-7.36,6.24-2.55,1.87-5.18,3.53-7.86,4.91-2.67,1.39-5.41,2.46-8.13,3.1-2.79.69-5.16.91-8.22.77-3.05-.14-6.02-.55-8.62-1.28-2.61-.7-4.84-1.76-6.18-2.98-1.32-1.24-1.91-2.38-2.16-4.2-.12-.9-.1-1.96.05-3.11.17-1.16.5-2.41.9-3.66.3-.88,1.1-3.02,1.44-3.56.47-.87,1.07-1.7,1.82-2.5,1.48-1.61,3.56-3.04,5.95-4.25,2.4-1.2,5.08-2.18,7.91-2.94,5.65-1.54,11.76-2.31,17.88-2.61,8.61-.43,17.28,0,25.81,1ZM519.32,76.412c-.42,2.47-.99,5.04-1.62,7.6-1.75,7.06-3.99,14.22-6.38,21.32-2.39,7.11-4.98,14.19-7.68,21.22l-2.05,5.26-1.03,2.63-.47,1.2-.55,1.32-1.1,2.63-1.09,2.43c-.69,1.6-1.5,3.26-2.28,4.92-6.35,13.25-13.7,26.16-21.33,38.73-7.65,12.58-15.75,24.79-24.07,36.68-8.69,12.43-17.65,24.49-26.82,36.17,5.81-12.62,11.63-25.25,17.45-37.89,13.1-28.45,25.24-57.41,39.14-85.11l1.3-2.58,1.36-2.55,2.74-5.01c1.85-3.33,3.78-6.61,5.74-9.88,3.92-6.52,8.07-12.89,12.41-19.05,4.36-6.13,8.94-12.09,13.76-17.37.85-.91,1.71-1.81,2.57-2.67Z"/>
</svg>