<?xml version="1.0" encoding="UTF-8"?>
<svg id="Layer_1" xmlns="http://www.w3.org/2000/svg" version="1.1" viewBox="0 0 64 64">
    <style>
      #whitegroup {
        opacity: 0;

        transition: opacity .5s;
      }
      svg:hover #whitegroup {
        opacity: 1;
      }
      #whitegroup circle,
      #whitegroup path {
        fill: white;
      }


      .star {
        fill: white;

        transition: fill .5s;
      }
      svg:hover .star {
        fill: #00bcff;
      }

      .bg path{
        fill: white;

        transition: fill .5s;
      }
      svg:hover .bg path {
        fill: #383838;
      }

    </style>
    <defs>
      <clipPath id="cornerCut">
        <path d="M 0 0 L 64 0 L 64 32 C 64 49.6731 49.6731 64 32 64 L 0 64 Z"/>
      </clipPath>
    </defs>
<a href="https://forums.ankiweb.net/u/eltaurus/summary" title="Anki" target="black_">
  <g id="whitegroup">
    <circle cx="50%" cy="50%" r="45%" />
    <path  clip-path="url(#cornerCut)" d="M32.022,64.098c-.446,0-.9-.053-1.355-.161-2.393-.571-4.072-2.511-4.297-4.953l-1.676-11.546c-.188-2.351-1.856-4.298-4.15-4.845l-.125-.034-11.027-3.395c-2.379-.598-4.038-2.556-4.234-5.008-.196-2.452,1.13-4.648,3.383-5.617l10.463-5.162c2.178-.905,3.514-3.093,3.325-5.444l-.006-.129-.179-11.536c-.167-2.447,1.183-4.63,3.454-5.574,2.272-.945,4.771-.362,6.388,1.481l8.142,8.355c1.536,1.792,4.029,2.386,6.206,1.48l.12-.045,10.916-3.735c2.273-.915,4.768-.307,6.369,1.562,1.6,1.868,1.818,4.425.564,6.533l-5.43,10.326c-1.229,2.012-1.025,4.567.51,6.359l.08.1,6.925,9.228c1.574,1.881,1.766,4.44.483,6.54s-3.648,3.096-6.039,2.557l-11.498-1.976c-2.295-.549-4.661.438-5.89,2.45l-.071.108-6.637,9.438c-1.055,1.684-2.813,2.642-4.715,2.642ZM28.675,47.05l1.675,11.543c.087,1.094.975,1.388,1.244,1.452.27.067,1.194.202,1.766-.733l.071-.108,6.635-9.436c2.132-3.438,6.185-5.123,10.129-4.214l11.496,1.975c1.07.255,1.621-.497,1.766-.734s.562-1.074-.152-1.906l-.081-.102-6.924-9.226c-2.609-3.092-2.961-7.469-.876-10.936l5.429-10.323c.572-.936.028-1.695-.152-1.906-.18-.211-.844-.866-1.861-.444l-.12.045-10.913,3.734c-3.744,1.525-8.018.509-10.672-2.546l-8.14-8.354c-.712-.833-1.604-.55-1.86-.444-.256.106-1.085.539-.997,1.632l.006.129.179,11.533c.295,4.035-1.994,7.783-5.719,9.363l-10.46,5.16c-1.013.421-1.019,1.355-.997,1.632.022.276.177,1.198,1.245,1.453l.124.034,11.024,3.394c3.928.967,6.785,4.301,7.137,8.332Z"/>
  </g>
  <g class="bg">
    <path d="M31.985,2.176l8.142,8.355c1.536,1.792,4.029,2.386,6.206,1.48l.12-.045,7.674-2.626C48.392,3.768,40.572.332,31.944.332c-.911,0-1.811.047-2.703.122,1.031.283,1.986.858,2.744,1.722Z"/>
    <path d="M61.799,21.087l-2.926,5.565c-1.229,2.012-1.025,4.567.51,6.359l.08.1,3.76,5.011c.364-1.928.563-3.914.563-5.948,0-3.899-.704-7.634-1.987-11.087Z"/>
    <path d="M30.667,63.936c-2.393-.571-4.072-2.511-4.297-4.953l-1.676-11.546c-.188-2.351-1.856-4.298-4.15-4.845l-.125-.034-11.027-3.395c-2.379-.598-4.038-2.556-4.234-5.008-.196-2.452,1.13-4.648,3.383-5.617l10.463-5.162c2.178-.905,3.514-3.093,3.325-5.444l-.006-.129-.179-11.536c-.143-2.103.838-4.005,2.557-5.099C10.606,4.45.102,17.081.102,32.173c0,17.259,13.734,31.302,30.869,31.817-.102-.019-.203-.03-.304-.054Z"/>
    <path d="M49.334,49.46c-2.295-.549-4.661.438-5.89,2.45l-.071.108-6.637,9.438c-.856,1.367-2.18,2.245-3.664,2.531,10.122-.353,19.039-5.426,24.621-13.09l-8.36-1.436Z"/>
  </g>
    <path class="star"  clip-path="url(#cornerCut)" d="M50.195,45.554l11.496,1.975c1.07.255,1.621-.497,1.766-.734s.562-1.074-.152-1.906l-.081-.102-6.924-9.226c-2.609-3.092-2.961-7.469-.876-10.936l5.429-10.323c.572-.936.028-1.695-.152-1.906-.18-.211-.844-.866-1.861-.444l-.12.045-10.913,3.734c-3.744,1.525-8.018.509-10.672-2.546l-8.14-8.354c-.712-.833-1.604-.55-1.86-.444-.256.106-1.085.539-.997,1.632l.006.129.179,11.533c.295,4.035-1.994,7.783-5.719,9.363l-10.46,5.16c-1.013.421-1.019,1.355-.997,1.632.022.276.177,1.198,1.245,1.453l.124.034,11.024,3.394c3.928.967,6.785,4.301,7.137,8.332l1.675,11.543c.087,1.094.975,1.388,1.244,1.452.27.067,1.194.202,1.766-.733l.071-.108,6.635-9.436c2.132-3.438,6.185-5.123,10.129-4.214Z"/>
</a>
</svg>